# xmcd
#
# Track frame offsets:
#	150
#	12701
#	33570
#	53053
#	71182
#	84075
#	101530
#	120627
#	136199
#	153780
#	170809
#	188442
#	204983
#	218921
#	234876
#	248949
#	262826
#	276146
#	297747
#
# Disc length: 4250 seconds
#
# Revision: 1
# Processed by: cddbd v1.5.1PL0 Copyright (c) Steve Scherf et al.
# Submitted via: audiograbber 1.83.01
#
DISCID=0c109813
DTITLE=ALVYDAS JEGELEVICIUS - Nakvyne Saules Namuose
DYEAR=1900
DGENRE=
TTITLE0=Pirmosios Geles
TTITLE1=Smuiko Stygos
TTITLE2=Nakvyne Saules Namuos
TTITLE3=Ne Mano Vestuves
TTITLE4=Eina Vaikai
TTITLE5=Tarp Audru
TTITLE6=Vakaru Giedrumoj
TTITLE7=Kur Skrenda Pauksciai
TTITLE8=Vaikystes Sviesa
TTITLE9=Karklai
TTITLE10=Sesuo Ieva
TTITLE11=Baltas Lino Gyvenimas
TTITLE12=Vienkiemis
TTITLE13=Pazinimo Kelias
TTITLE14=Prie Vilneles
TTITLE15=Velu Rudeni
TTITLE16=Jei Sugriztu Atgal Valanda
TTITLE17=Kol Nevelu, Kol Tu Salia
TTITLE18=Desimt Zingsniu
EXTD=
EXTT0=
EXTT1=
EXTT2=
EXTT3=
EXTT4=
EXTT5=
EXTT6=
EXTT7=
EXTT8=
EXTT9=
EXTT10=
EXTT11=
EXTT12=
EXTT13=
EXTT14=
EXTT15=
EXTT16=
EXTT17=
EXTT18=
PLAYORDER=
